<?xml version="1.0" encoding="UTF-8" standalone="no"?>
<svg width="162px" height="44px" viewBox="0 0 162 44" version="1.1" xmlns="http://www.w3.org/2000/svg" xmlns:xlink="http://www.w3.org/1999/xlink" xmlns:sketch="http://www.bohemiancoding.com/sketch/ns">
    <!-- Generator: Sketch 3.3.1 (12002) - http://www.bohemiancoding.com/sketch -->
    <title>logo_motul_cmyk</title>
    <desc>Created with Sketch.</desc>
    <defs></defs>
    <g id="Page-1" stroke="none" stroke-width="1" fill="none" fill-rule="evenodd" sketch:type="MSPage">
        <g id="logo_motul_cmyk" sketch:type="MSLayerGroup">
            <path d="M45.414,7.55683582 L45.414,36.5968358 L35.136,36.5968358 L35.704,23.9254925 L30.1146667,36.5968358 L23.262,36.5968358 L21.3046667,23.7383284 L17.9893333,36.5712239 L7.44066667,36.5712239 L16.0633333,7.55683582 L27.24,7.55683582 L28.9793333,19.3527761 L33.9693333,7.55683582 L45.414,7.55683582" id="Fill-2" fill="#FFFFFF" sketch:type="MSShapeGroup"></path>
            <path d="M102.967333,16.7626866 L98.3546667,16.5768358 L95.9893333,36.5712239 L84.8066667,36.5712239 L87.3513333,16.6168955 L83.1033333,16.7626866 L75.9686667,7.54435821 L103.944,7.54435821 L102.967333,16.7626866" id="Fill-3" fill="#FFFFFF" sketch:type="MSShapeGroup"></path>
            <path d="M117.242667,7.54435821 L115.158,25.5745075 C115.094,26.664 115.596,27.7528358 116.578667,28.2171343 C117.591333,28.5901493 118.853333,28.4391045 119.642667,27.689791 C120.335333,27.0961194 120.590667,26.2916418 120.781333,25.4490746 L123.27,7.54435821 L133.948667,7.54435821 L131.644,27.4060896 C131.137333,30.2385075 129.809333,32.916597 127.253333,34.7225672 C123.556,37.3625672 118.63,37.7664478 113.860667,37.1162985 C110.073333,36.4300299 105.747333,34.0014925 104.513333,30.2063284 C103.979333,28.8390448 104.072,27.1933134 104.072,25.6992836 L106.284,7.54435821 L117.242667,7.54435821" id="Fill-4" fill="#FFFFFF" sketch:type="MSShapeGroup"></path>
            <path d="M145.568667,27.3936119 L154.346,27.3936119 L151.759333,36.5712239 L133.061333,36.5712239 L136.948,7.54435821 L148.058667,7.54435821 L145.568667,27.3936119" id="Fill-5" fill="#FFFFFF" sketch:type="MSShapeGroup"></path>
            <path d="M72.368,8.62071642 L73.4746667,9.46131343 L80.0106667,17.736597 C80.7386667,19.1334328 80.7686667,20.9098507 80.7046667,22.5923582 C80.612,28.1540896 76.918,33.3487164 71.7673333,35.6820299 C65.484,38.6090149 57.0826667,37.2391045 52.158,32.4496716 C47.8,28.3721194 46.9146667,21.4982687 49.1893333,16.2110448 C51.842,10.330806 58.0933333,6.65844776 64.5366667,6.94214925 C67.316,7.00191045 69.9993333,7.46883582 72.368,8.62071642 L72.368,8.62071642 Z M65.6106667,16.5847164 C63.242,16.2701493 60.9993333,17.3596418 59.8,19.4447164 C58.79,21.1882985 58.536,23.6122388 59.6093333,25.3873433 C60.368,26.8780896 61.948,27.9065075 63.6213333,28.0614925 C65.7986667,28.248 67.7266667,27.1933134 68.8633333,25.3873433 C70.0313333,23.7087761 70.0973333,20.9676418 69.146,19.1662687 C68.5153333,17.7970149 67.03,16.8336119 65.6106667,16.5847164 L65.6106667,16.5847164 Z" id="Fill-6" fill="#FFFFFF" sketch:type="MSShapeGroup"></path>
        </g>
    </g>
</svg>
